<svg width="100" height="92" viewBox="0 0 100 92" fill="none" xmlns="http://www.w3.org/2000/svg">
<mask id="mask0_79_68" style="mask-type:luminance" maskUnits="userSpaceOnUse" x="0" y="0" width="100" height="92">
<path d="M99.3335 0.908936H0.666504V91.9089H99.3335V0.908936Z" fill="white"/>
</mask>
<g mask="url(#mask0_79_68)">
<path d="M95.4724 76.1447L68.2912 29.0946V5.97307H70.7119C72.2231 5.97307 73.4581 4.84921 73.4581 3.44174C73.4581 2.03276 72.2396 0.908936 70.7119 0.908936H29.4296C27.9184 0.908936 26.6834 2.03276 26.6834 3.44174C26.6834 4.84921 27.9019 5.97307 29.4296 5.97307H31.8503V29.0946L4.63625 76.1447C0.460988 83.1426 6.14751 91.9089 14.8878 91.9089H85.2044C93.3773 91.9089 99.5506 83.8024 95.4724 76.1447ZM85.2209 86.8584H14.9206C10.3228 86.8736 7.34957 81.7943 9.51038 78.5274L25.205 51.3761H74.9858L90.6788 78.5274C92.759 81.8838 90.1427 86.9797 85.2209 86.8584ZM37.3246 29.7241V5.97307H62.8004V29.7241C62.8004 30.1291 62.9139 30.5476 63.1244 30.9071L72.0126 46.3118H28.1124L37.0007 30.9071C37.2112 30.5476 37.3246 30.1291 37.3246 29.7241Z" fill="#3B5F45"/>
<path d="M74.9529 51.376H25.1721L9.47748 78.5273C7.31667 81.7942 10.2898 86.8736 14.8877 86.8599H85.2044C90.1098 86.9797 92.7261 81.8837 90.6146 78.5273L74.9529 51.376Z" fill="#D9D9D9"/>
<path d="M85.8697 80.8949L71.7357 56.4265H28.5343L27.1694 58.7789H35.3424C36.8536 58.7789 38.087 59.9028 38.087 61.3102C38.087 62.7192 36.8701 63.843 35.3424 63.843H24.2456L21.1919 69.1331H26.9425C28.4538 69.1331 29.6887 70.257 29.6887 71.6645C29.6887 73.0583 28.4702 74.1974 26.9425 74.1974H18.2829L14.4003 80.8798C14.124 81.5396 14.6766 81.7791 14.9841 81.7791H85.3008C85.8862 81.7943 86.0325 81.18 85.8697 80.8949Z" fill="url(#paint0_linear_79_68)"/>
<path d="M72.0271 46.3268L63.1405 30.9221C62.9283 30.5626 62.8149 30.1576 62.8149 29.739V5.9729H37.3243V29.724C37.3243 30.1289 37.2108 30.5475 36.9987 30.9069L28.1121 46.3117H72.0435V46.3268H72.0271Z" fill="#D9D9D9"/>
</g>
<defs>
<linearGradient id="paint0_linear_79_68" x1="50.1285" y1="56.4265" x2="50.1285" y2="81.7794" gradientUnits="userSpaceOnUse">
<stop stop-color="#01978F"/>
<stop offset="1" stop-color="#00689E"/>
</linearGradient>
</defs>
</svg>
