<svg width="486" height="468" viewBox="0 0 486 468" fill="none" xmlns="http://www.w3.org/2000/svg">
<path d="M97.1641 226.628L139.237 249.564V295.436L97.1641 318.372L55.0908 295.436V249.564L97.1641 226.628Z" fill="url(#paint0_linear_79_29)"/>
<path d="M48.582 301.146L90.6553 324.082V369.954L48.582 392.89L6.50876 369.954V324.082L48.582 301.146Z" fill="url(#paint1_linear_79_29)"/>
<path d="M145.746 301.146L187.819 324.082V369.954L145.746 392.89L103.673 369.954V324.082L145.746 301.146Z" fill="url(#paint2_linear_79_29)"/>
<path d="M242.91 301.146L284.983 324.082V369.954L242.91 392.89L200.837 369.954V324.082L242.91 301.146Z" fill="url(#paint3_linear_79_29)"/>
<path d="M194.328 375.664L236.401 398.6V444.473L194.328 467.409L152.255 444.473V398.6L194.328 375.664Z" fill="url(#paint4_linear_79_29)"/>
<path d="M291.492 375.664L333.565 398.6V444.473L291.492 467.409L249.419 444.473V398.6L291.492 375.664Z" fill="url(#paint5_linear_79_29)"/>
<path d="M242.91 152.11L284.983 175.046V220.918L242.91 243.854L200.837 220.918V175.046L242.91 152.11Z" fill="url(#paint6_linear_79_29)"/>
<path d="M194.328 226.628L236.401 249.564V295.436L194.328 318.372L152.255 295.436V249.564L194.328 226.628Z" fill="url(#paint7_linear_79_29)"/>
<path d="M291.492 226.628L333.565 249.564V295.436L291.492 318.372L249.419 295.436V249.564L291.492 226.628Z" fill="url(#paint8_linear_79_29)"/>
<path d="M388.164 74.5911L430.237 97.5272V143.399L388.164 166.336L346.091 143.399V97.5272L388.164 74.5911Z" fill="url(#paint9_linear_79_29)"/>
<path d="M339.582 149.109L381.655 172.045V217.918L339.582 240.854L297.509 217.918V172.045L339.582 149.109Z" fill="url(#paint10_linear_79_29)"/>
<path d="M436.746 149.109L478.819 172.045V217.918L436.746 240.854L394.673 217.918V172.045L436.746 149.109Z" fill="url(#paint11_linear_79_29)"/>
<path d="M388.164 226.591L430.237 249.527V295.399L388.164 318.336L346.091 295.399V249.527L388.164 226.591Z" fill="url(#paint12_linear_79_29)"/>
<path d="M339.582 301.109L381.655 324.045V369.918L339.582 392.854L297.509 369.918V324.045L339.582 301.109Z" fill="url(#paint13_linear_79_29)"/>
<path d="M436.746 301.109L478.819 324.045V369.918L436.746 392.854L394.673 369.918V324.045L436.746 301.109Z" fill="url(#paint14_linear_79_29)"/>
<path d="M97.1641 74.5911L139.237 97.5272V143.399L97.1641 166.336L55.0908 143.399V97.5272L97.1641 74.5911Z" fill="url(#paint15_linear_79_29)"/>
<path d="M48.582 149.109L90.6553 172.045V217.918L48.582 240.854L6.50876 217.918V172.045L48.582 149.109Z" fill="url(#paint16_linear_79_29)"/>
<path d="M145.746 149.109L187.819 172.045V217.918L145.746 240.854L103.673 217.918V172.045L145.746 149.109Z" fill="url(#paint17_linear_79_29)"/>
<path d="M243.164 0.591064L285.237 23.5272V69.3995L243.164 92.3356L201.091 69.3995V23.5272L243.164 0.591064Z" fill="url(#paint18_linear_79_29)"/>
<path d="M194.582 75.1091L236.655 98.0453V143.918L194.582 166.854L152.509 143.918V98.0453L194.582 75.1091Z" fill="url(#paint19_linear_79_29)"/>
<path d="M291.746 75.1091L333.819 98.0453V143.918L291.746 166.854L249.673 143.918V98.0453L291.746 75.1091Z" fill="url(#paint20_linear_79_29)"/>
<defs>
<linearGradient id="paint0_linear_79_29" x1="97.1641" y1="226.628" x2="97.1641" y2="318.372" gradientUnits="userSpaceOnUse">
<stop stop-color="#01978F"/>
<stop offset="1" stop-color="#00689E"/>
</linearGradient>
<linearGradient id="paint1_linear_79_29" x1="48.582" y1="301.146" x2="48.582" y2="392.89" gradientUnits="userSpaceOnUse">
<stop stop-color="#01978F"/>
<stop offset="1" stop-color="#00689E"/>
</linearGradient>
<linearGradient id="paint2_linear_79_29" x1="145.746" y1="301.146" x2="145.746" y2="392.89" gradientUnits="userSpaceOnUse">
<stop stop-color="#01978F"/>
<stop offset="1" stop-color="#00689E"/>
</linearGradient>
<linearGradient id="paint3_linear_79_29" x1="242.91" y1="301.146" x2="242.91" y2="392.89" gradientUnits="userSpaceOnUse">
<stop stop-color="#01978F"/>
<stop offset="1" stop-color="#00689E"/>
</linearGradient>
<linearGradient id="paint4_linear_79_29" x1="194.328" y1="375.664" x2="194.328" y2="467.409" gradientUnits="userSpaceOnUse">
<stop stop-color="#01978F"/>
<stop offset="1" stop-color="#00689E"/>
</linearGradient>
<linearGradient id="paint5_linear_79_29" x1="291.492" y1="375.664" x2="291.492" y2="467.409" gradientUnits="userSpaceOnUse">
<stop stop-color="#01978F"/>
<stop offset="1" stop-color="#00689E"/>
</linearGradient>
<linearGradient id="paint6_linear_79_29" x1="242.91" y1="152.11" x2="242.91" y2="243.854" gradientUnits="userSpaceOnUse">
<stop stop-color="#01978F"/>
<stop offset="1" stop-color="#00689E"/>
</linearGradient>
<linearGradient id="paint7_linear_79_29" x1="194.328" y1="226.628" x2="194.328" y2="318.372" gradientUnits="userSpaceOnUse">
<stop stop-color="#01978F"/>
<stop offset="1" stop-color="#00689E"/>
</linearGradient>
<linearGradient id="paint8_linear_79_29" x1="291.492" y1="226.628" x2="291.492" y2="318.372" gradientUnits="userSpaceOnUse">
<stop stop-color="#01978F"/>
<stop offset="1" stop-color="#00689E"/>
</linearGradient>
<linearGradient id="paint9_linear_79_29" x1="388.164" y1="74.5911" x2="388.164" y2="166.336" gradientUnits="userSpaceOnUse">
<stop stop-color="#01978F"/>
<stop offset="1" stop-color="#00689E"/>
</linearGradient>
<linearGradient id="paint10_linear_79_29" x1="339.582" y1="149.109" x2="339.582" y2="240.854" gradientUnits="userSpaceOnUse">
<stop stop-color="#01978F"/>
<stop offset="1" stop-color="#00689E"/>
</linearGradient>
<linearGradient id="paint11_linear_79_29" x1="436.746" y1="149.109" x2="436.746" y2="240.854" gradientUnits="userSpaceOnUse">
<stop stop-color="#01978F"/>
<stop offset="1" stop-color="#00689E"/>
</linearGradient>
<linearGradient id="paint12_linear_79_29" x1="388.164" y1="226.591" x2="388.164" y2="318.336" gradientUnits="userSpaceOnUse">
<stop stop-color="#01978F"/>
<stop offset="1" stop-color="#00689E"/>
</linearGradient>
<linearGradient id="paint13_linear_79_29" x1="339.582" y1="301.109" x2="339.582" y2="392.854" gradientUnits="userSpaceOnUse">
<stop stop-color="#01978F"/>
<stop offset="1" stop-color="#00689E"/>
</linearGradient>
<linearGradient id="paint14_linear_79_29" x1="436.746" y1="301.109" x2="436.746" y2="392.854" gradientUnits="userSpaceOnUse">
<stop stop-color="#01978F"/>
<stop offset="1" stop-color="#00689E"/>
</linearGradient>
<linearGradient id="paint15_linear_79_29" x1="97.1641" y1="74.5911" x2="97.1641" y2="166.336" gradientUnits="userSpaceOnUse">
<stop stop-color="#01978F"/>
<stop offset="1" stop-color="#00689E"/>
</linearGradient>
<linearGradient id="paint16_linear_79_29" x1="48.582" y1="149.109" x2="48.582" y2="240.854" gradientUnits="userSpaceOnUse">
<stop stop-color="#01978F"/>
<stop offset="1" stop-color="#00689E"/>
</linearGradient>
<linearGradient id="paint17_linear_79_29" x1="145.746" y1="149.109" x2="145.746" y2="240.854" gradientUnits="userSpaceOnUse">
<stop stop-color="#01978F"/>
<stop offset="1" stop-color="#00689E"/>
</linearGradient>
<linearGradient id="paint18_linear_79_29" x1="243.164" y1="0.591064" x2="243.164" y2="92.3356" gradientUnits="userSpaceOnUse">
<stop stop-color="#01978F"/>
<stop offset="1" stop-color="#00689E"/>
</linearGradient>
<linearGradient id="paint19_linear_79_29" x1="194.582" y1="75.1091" x2="194.582" y2="166.854" gradientUnits="userSpaceOnUse">
<stop stop-color="#01978F"/>
<stop offset="1" stop-color="#00689E"/>
</linearGradient>
<linearGradient id="paint20_linear_79_29" x1="291.746" y1="75.1091" x2="291.746" y2="166.854" gradientUnits="userSpaceOnUse">
<stop stop-color="#01978F"/>
<stop offset="1" stop-color="#00689E"/>
</linearGradient>
</defs>
</svg>
