<svg width="90" height="92" viewBox="0 0 90 92" fill="none" xmlns="http://www.w3.org/2000/svg">
<mask id="mask0_79_85" style="mask-type:luminance" maskUnits="userSpaceOnUse" x="0" y="0" width="90" height="92">
<path d="M89.7416 0.908936H0.258301V91.9089H89.7416V0.908936Z" fill="white"/>
</mask>
<g mask="url(#mask0_79_85)">
<path d="M70.3528 86.6006H50.7783C49.2332 86.6006 47.9819 85.3286 47.9819 83.7568C47.9819 82.1851 49.2332 80.9131 50.7783 80.9131H70.3528C71.8964 80.9131 73.1491 79.6385 73.1491 78.0693V69.5381C73.1491 67.9664 74.4004 66.6943 75.9455 66.6943C77.4906 66.6943 78.7418 67.9664 78.7418 69.5381V78.0693C78.7418 82.7737 74.9791 86.6006 70.3528 86.6006Z" fill="#01978F" fill-opacity="0.29"/>
<path d="M75.9455 49.6318C74.4005 49.6318 73.1492 48.3598 73.1492 46.7881V26.8818C73.1492 19.0422 66.8764 12.6631 59.1674 12.6631H31.2039C23.4949 12.6631 17.2221 19.0422 17.2221 26.8818V46.7881C17.2221 48.3598 15.9693 49.6318 14.4257 49.6318C12.8822 49.6318 11.6294 48.3598 11.6294 46.7881V26.8818C11.6294 15.9066 20.4107 6.97559 31.2039 6.97559H59.1674C69.9591 6.97559 78.7419 15.9066 78.7419 26.8818V46.7881C78.7419 48.3598 77.4906 49.6318 75.9455 49.6318Z" fill="#3B5F45"/>
<path d="M25.6111 43.9443V72.3818C25.6111 73.9458 24.3523 75.2256 22.8147 75.2256C21.2771 75.2256 20.0184 73.9458 20.0184 72.3818H11.6293C7.01494 72.3818 3.24023 68.5428 3.24023 63.8506V52.4756C3.24023 47.7833 7.01494 43.9443 11.6293 43.9443H20.0184C20.0184 42.3803 21.2771 41.1006 22.8147 41.1006C24.3523 41.1006 25.6111 42.3803 25.6111 43.9443Z" fill="url(#paint0_linear_79_85)"/>
<path d="M87.1308 52.4756V63.8506C87.1308 68.5428 83.3561 72.3818 78.7418 72.3818H70.3527C70.3527 73.9458 69.094 75.2256 67.5564 75.2256C66.0187 75.2256 64.76 73.9458 64.76 72.3818V43.9443C64.76 42.3803 66.0187 41.1006 67.5564 41.1006C69.094 41.1006 70.3527 42.3803 70.3527 43.9443H78.7418C83.3561 43.9443 87.1308 47.7833 87.1308 52.4756Z" fill="url(#paint1_linear_79_85)"/>
<path d="M53.5748 83.7568C53.5748 88.4491 49.8001 92.2881 45.1857 92.2881C40.5713 92.2881 36.7966 88.4491 36.7966 83.7568C36.7966 79.0646 40.5713 75.2256 45.1857 75.2256C49.8001 75.2256 53.5748 79.0646 53.5748 83.7568Z" fill="url(#paint2_linear_79_85)"/>
</g>
<defs>
<linearGradient id="paint0_linear_79_85" x1="14.4257" y1="41.1006" x2="14.4257" y2="75.2256" gradientUnits="userSpaceOnUse">
<stop stop-color="#01978F"/>
<stop offset="1" stop-color="#00689E"/>
</linearGradient>
<linearGradient id="paint1_linear_79_85" x1="75.9454" y1="41.1006" x2="75.9454" y2="75.2256" gradientUnits="userSpaceOnUse">
<stop stop-color="#01978F"/>
<stop offset="1" stop-color="#00689E"/>
</linearGradient>
<linearGradient id="paint2_linear_79_85" x1="45.1857" y1="75.2256" x2="45.1857" y2="92.2881" gradientUnits="userSpaceOnUse">
<stop stop-color="#01978F"/>
<stop offset="1" stop-color="#00689E"/>
</linearGradient>
</defs>
</svg>
