<svg class="logo" xmlns="http://www.w3.org/2000/svg" width="200" height="275" viewBox="0 0 497 538" fill="none">
        <g filter="url(#filter0_d_125_39)">
        <path d="M340.715 0H492.144V530H340.715C340.715 530 340.715 495.921 340.715 444.821C397.5 444.821 397.5 362.798 340.715 362.798C340.715 344.48 340.715 325.414 340.715 306.012C397.5 306.012 397.5 223.988 340.715 223.988C340.715 202.485 340.715 181.271 340.715 160.893C394.345 160.893 394.345 78.869 340.715 78.869C340.715 43.6987 340.715 15.7226 340.715 0Z" fill="#038993"/>
        </g>
        
       
         
          
         <ellipse cx="25.2382" cy="164.047" rx="25.2382" ry="22.0834" fill="#038993"/>
        <ellipse cx="25.2382" cy="265" rx="25.2382" ry="22.0834" fill="#038993"/>
        <ellipse cx="25.2382" cy="365.952" rx="25.2382" ry="22.0834" fill="#038993"/>
        <ellipse cx="94.6429" cy="419.583" rx="37.8572" ry="31.5477" fill="#038993"/>
        <ellipse cx="94.6429" cy="315.475" rx="37.8572" ry="31.5477" fill="#038993"/>
        <ellipse cx="94.6429" cy="211.369" rx="37.8572" ry="31.5477" fill="#038993"/>
        <ellipse cx="94.6429" cy="107.262" rx="37.8572" ry="31.5477" fill="#038993"/>
        <ellipse cx="182.976" cy="141.964" rx="44.1668" ry="37.8572" fill="#038993"/>
        <ellipse cx="182.976" cy="261.845" rx="44.1668" ry="37.8572" fill="#038993"/>
        <ellipse cx="182.976" cy="388.035" rx="44.1668" ry="37.8572" fill="#038993"/>
        
        <ellipse cx="277.619" cy="53.6306" rx="50.4763" ry="44.1668" fill="#038993"/>
        <ellipse cx="277.619" cy="192.44" rx="50.4763" ry="44.1668" fill="#038993"/>
        <ellipse cx="277.619" cy="331.249" rx="50.4763" ry="44.1668" fill="#038993"/>
        <ellipse cx="277.619" cy="476.369" rx="50.4763" ry="44.1668" fill="#038993"/>
        <defs>
        <filter id="filter0_d_125_39" x="336.715" y="0" width="159.429" height="538" filterUnits="userSpaceOnUse" color-interpolation-filters="sRGB">
        <feFlood flood-opacity="0" result="BackgroundImageFix"/>
        <feColorMatrix in="SourceAlpha" type="matrix" values="0 0 0 0 0 0 0 0 0 0 0 0 0 0 0 0 0 0 127 0" result="hardAlpha"/>
        <feOffset dy="4"/>
        <feGaussianBlur stdDeviation="2"/>
        <feComposite in2="hardAlpha" operator="out"/>
        <feColorMatrix type="matrix" values="0 0 0 0 0 0 0 0 0 0 0 0 0 0 0 0 0 0 0.25 0"/>
        <feBlend mode="normal" in2="BackgroundImageFix" result="effect1_dropShadow_125_39"/>
        <feBlend mode="normal" in="SourceGraphic" in2="effect1_dropShadow_125_39" result="shape"/>
        </filter>
        </defs>
        </svg>
