<svg width="78" height="92" viewBox="0 0 78 92" fill="none" xmlns="http://www.w3.org/2000/svg">
<path d="M71.6198 81.0323H64.9985L63.2257 75.6814C71.6528 69.149 76.0864 58.8246 73.8929 48.1309C71.5005 36.466 61.882 27.5671 50.0101 24.5811L49.0608 31.73C57.4217 34.2425 64.0872 40.7091 65.802 49.0701C67.2078 55.9252 64.9798 62.5748 60.357 67.4232C58.4003 63.7243 53.9445 61.1396 48.7578 61.1396C45.1994 61.1396 41.9861 62.3581 39.6858 64.3151L39.674 64.3263C39.2738 64.6667 38.9011 65.0311 38.5582 65.4164L22.5725 81.0323H3.34108C1.90746 81.0323 0.734619 82.0485 0.734619 83.2895V89.6518C0.734619 90.8944 1.90746 91.909 3.34108 91.909H71.6198C73.0533 91.909 74.2261 90.8944 74.2261 89.6518V83.2895C74.2261 82.0485 73.0533 81.0323 71.6198 81.0323Z" fill="#332A22"/>
<path d="M27.8459 60.5008L21.46 56.3942L27.1778 46.0729L37.5969 52.7723L27.8459 60.5008ZM72.979 10.4969L63.61 4.47339L54.2538 15.3902L63.6228 21.4153L72.979 10.4969Z" fill="#332A22"/>
<path d="M21.58 82.1496L6.88869 71.9664C6.68704 71.8268 6.55785 71.6229 6.52931 71.3997C6.50077 71.1766 6.57509 70.9534 6.73634 70.7768L8.87333 68.4634C9.03569 68.2884 9.27144 68.1776 9.5287 68.1519C9.78614 68.1279 10.0443 68.1921 10.2471 68.3317L24.9384 78.5149C25.14 78.6546 25.2692 78.8585 25.2977 79.0816C25.3263 79.3048 25.252 79.5279 25.0907 79.7045L22.9537 82.018C22.7914 82.193 22.5558 82.3037 22.2984 82.3294C22.0409 82.3535 21.7826 82.2893 21.58 82.1496ZM29.4611 76.179L31.7313 73.7308C32.4047 73.0051 32.2697 71.9343 31.4316 71.3499L10.7809 56.9815C9.94275 56.3987 8.70596 56.5143 8.0328 57.2416L5.76237 59.6882C5.08902 60.4154 5.22395 61.4863 6.06207 62.069L26.7128 76.4391C27.5509 77.0219 28.7877 76.9047 29.4611 76.179ZM75.1456 13.5196L76.9462 11.4181C77.4803 10.7952 77.3285 9.90744 76.609 9.44509L63.7643 1.18523C63.045 0.722875 62.0193 0.85453 61.4853 1.47743L59.6849 3.57891C59.1508 4.20181 59.3026 5.08961 60.0219 5.55197L72.8668 13.8118C73.5859 14.2742 74.6116 14.1425 75.1456 13.5196ZM40.9002 56.8241L68.4247 24.7078C69.2791 23.7108 69.0365 22.29 67.8854 21.5499L52.9129 11.9222C51.7619 11.1821 50.1209 11.3925 49.2665 12.3894L21.742 44.5058C20.8875 45.5027 21.1302 46.9251 22.2813 47.6652L37.2538 57.2913C38.4047 58.0314 40.0458 57.8227 40.9002 56.8241Z" fill="url(#paint0_linear_79_78)"/>
<path d="M59.9708 41.8651C64.5978 41.8651 68.3488 38.6158 68.3488 34.6071C68.3488 30.5999 64.5978 27.3506 59.9708 27.3506C55.3437 27.3506 51.5928 30.5999 51.5928 34.6071C51.5928 38.6158 55.3437 41.8651 59.9708 41.8651Z" fill="#332A22"/>
<defs>
<linearGradient id="paint0_linear_79_78" x1="41.2996" y1="0.908936" x2="41.2996" y2="82.3344" gradientUnits="userSpaceOnUse">
<stop stop-color="#01978F"/>
<stop offset="1" stop-color="#00689E"/>
</linearGradient>
</defs>
</svg>
